<?xml version="1.0" encoding="UTF-8" standalone="no"?>
<svg width="256px" height="153px" viewBox="0 0 256 153" version="1.1" xmlns="http://www.w3.org/2000/svg" xmlns:xlink="http://www.w3.org/1999/xlink" preserveAspectRatio="xMidYMid">
	<g>
		<path d="M72.392,55.488 C72.392,58.764 72.753,61.364 73.400,63.208 C74.122,65.052 75.130,66.972 76.504,68.966 C76.934,69.617 77.089,70.268 77.089,70.844 C77.089,71.644 76.573,72.445 75.465,73.245 L69.955,76.904 C69.214,77.404 68.449,77.629 67.756,77.629 C66.839,77.629 65.921,77.180 65.005,76.380 C63.554,74.835 62.309,73.190 61.242,71.419 C60.200,69.649 59.158,67.678 58.092,65.384 C52.053,72.519 44.648,76.079 35.879,76.079 C29.839,76.079 25.014,74.310 21.471,70.768 C17.928,67.228 16.144,62.527 16.144,56.664 C16.144,50.350 18.354,45.274 22.776,41.585 C27.198,37.895 33.036,36.047 40.362,36.047 C42.596,36.047 44.906,36.271 47.369,36.647 C49.831,37.021 52.368,37.596 55.036,38.247 L55.036,31.934 C55.036,25.919 53.823,21.604 51.395,19.009 C48.916,16.414 44.728,15.138 38.780,15.138 C36.318,15.138 33.781,15.438 31.170,16.089 C28.559,16.739 26.025,17.539 23.537,18.565 C22.294,19.140 21.291,19.465 20.602,19.615 C19.914,19.765 19.386,19.841 18.996,19.841 C17.618,19.841 16.929,19.015 16.929,17.240 L16.929,13.326 C16.929,11.925 17.155,10.875 17.656,10.275 C18.156,9.675 19.056,9.075 20.424,8.425 C22.912,7.099 25.910,6.000 29.441,5.125 C32.972,4.199 36.734,3.750 40.750,3.750 C49.967,3.750 56.797,5.875 61.319,10.125 C65.768,14.375 68.001,20.755 68.001,29.264 L68.001,55.488 L72.392,55.488 L72.392,55.488 Z M37.322,65.459 C39.707,65.459 42.167,65.084 44.778,64.284 C47.389,63.483 49.727,62.082 51.753,60.158 C53.026,58.913 53.977,57.442 54.514,55.747 C55.051,54.052 55.344,51.980 55.344,49.535 L55.344,46.826 C53.384,46.300 51.261,45.875 49.004,45.574 C46.773,45.274 44.568,45.124 42.389,45.124 C37.582,45.124 34.073,46.075 31.818,48.027 C29.563,49.981 28.422,52.725 28.422,56.313 C28.422,59.676 29.282,62.158 31.040,63.708 C32.732,65.309 34.636,65.459 37.322,65.459 L37.322,65.459 Z M106.877,75.503 C105.192,75.503 104.028,75.203 103.262,74.553 C102.496,73.952 101.883,72.651 101.422,70.795 L83.285,8.874 C82.799,7.099 82.571,5.924 82.571,5.399 C82.571,3.925 83.309,3.150 84.809,3.150 L92.131,3.150 C93.891,3.150 95.079,3.450 95.795,4.100 C96.586,4.750 97.125,6.051 97.587,7.905 L109.952,60.308 L121.524,7.905 C121.910,5.999 122.424,4.750 123.190,4.100 C123.955,3.450 125.195,3.150 126.880,3.150 L132.735,3.150 C134.494,3.150 135.709,3.450 136.399,4.100 C137.090,4.750 137.652,6.051 137.989,7.905 L149.711,61.108 L162.380,7.905 C162.842,6.051 163.382,4.750 164.098,4.100 C164.889,3.450 166.077,3.150 167.762,3.150 L174.634,3.150 C176.134,3.150 176.898,3.875 176.898,5.399 C176.898,5.849 176.824,6.299 176.751,6.824 C176.676,7.350 176.500,7.975 176.188,8.800 L157.624,70.720 C157.162,72.576 156.549,73.877 155.784,74.478 C155.018,75.128 153.804,75.429 152.270,75.429 L145.973,75.429 C144.213,75.429 142.999,75.128 142.308,74.478 C141.618,73.827 141.056,72.526 140.719,70.645 L129.146,19.390 L117.649,70.570 C117.263,72.451 116.726,73.752 116.035,74.403 C115.345,75.053 114.056,75.353 112.296,75.353 L106.877,75.353 L106.877,75.503 Z M214.719,76.829 C210.926,76.829 207.158,76.379 203.476,75.503 C199.794,74.628 196.861,73.602 194.762,72.501 C193.394,71.776 192.469,71.000 192.044,70.270 C191.618,69.539 191.393,68.739 191.393,68.014 L191.393,63.934 C191.393,62.158 192.081,61.333 193.384,61.333 C193.994,61.333 194.607,61.458 195.221,61.683 C195.832,61.909 196.670,62.233 197.658,62.608 C200.345,63.783 203.180,64.734 206.164,65.309 C209.221,65.885 212.180,66.185 215.139,66.185 C220.054,66.185 223.888,65.309 226.649,63.559 C229.410,61.809 230.829,59.301 230.829,56.089 C230.829,53.869 230.116,52.050 228.690,50.576 C227.264,49.100 224.603,47.776 220.743,46.601 L209.348,43.539 C203.650,41.920 199.415,39.474 196.730,36.346 C194.043,33.243 192.694,29.714 192.694,25.844 C192.694,22.678 193.458,19.841 194.987,17.390 C196.511,14.940 198.522,12.870 200.966,11.221 C203.407,9.570 206.171,8.325 209.251,7.474 C212.330,6.599 215.557,6.174 218.857,6.174 C220.541,6.174 222.300,6.299 224.009,6.524 C225.794,6.749 227.455,7.099 229.116,7.474 C230.702,7.899 232.192,8.325 233.644,8.800 C235.096,9.275 236.297,9.750 237.215,10.200 C238.508,10.875 239.482,11.575 240.056,12.345 C240.631,13.045 240.932,13.996 240.932,15.138 L240.932,18.915 C240.932,20.689 240.245,21.590 238.942,21.590 C238.180,21.590 237.068,21.214 235.691,20.464 C231.072,18.240 225.868,17.164 220.054,17.164 C215.633,17.164 212.183,17.915 209.791,19.465 C207.398,21.014 206.192,23.384 206.192,26.644 C206.192,28.864 206.978,30.689 208.555,32.088 C210.131,33.488 213.012,34.813 217.178,35.988 L228.269,39.049 C233.950,40.649 238.031,42.945 240.566,45.924 C243.100,48.904 244.375,52.425 244.375,56.439 C244.375,59.676 243.637,62.608 242.162,65.159 C240.686,67.703 238.654,69.873 236.136,71.569 C233.618,73.290 230.655,74.553 227.312,75.429 C223.842,76.379 219.415,76.829 214.719,76.829 L214.719,76.829 Z" fill="#252F3E"></path>
		<path d="M221.502,124.011 C194.805,143.206 156.031,153.201 122.731,153.201 C77.311,153.201 36.287,137.462 4.418,110.668 C1.489,108.124 4.143,104.713 7.674,106.613 C42.112,125.433 84.288,136.877 128.096,136.877 C158.022,136.877 190.779,130.813 221.216,118.598 C226.056,116.503 230.089,121.917 221.502,124.011 L221.502,124.011 Z" fill="#FF9900"></path>
		<path d="M233.824,110.193 C230.200,105.503 209.788,107.899 200.688,108.999 C197.835,109.374 197.450,106.938 199.997,105.054 C215.751,93.764 242.100,96.659 245.167,100.499 C248.233,104.413 244.222,125.433 229.436,138.172 C227.038,140.282 224.758,139.106 225.919,136.481 C229.436,128.853 237.447,114.832 233.824,110.193 L233.824,110.193 Z" fill="#FF9900"></path>
	</g>
</svg>
