<svg width="100%" height="100%" viewBox="0 0 256 256" xmlns="http://www.w3.org/2000/svg" preserveAspectRatio="xMidYMid"><path d="M128 0c70.692 0 128 57.308 128 128 0 70.692-57.308 128-128 128C57.308 256 0 198.692 0 128 0 57.308 57.308 0 128 0zm-6.718 133.231c-.416-.213-.838-.32-1.273-.313-1.168 0-2.164.41-2.988 1.231-.824.822-1.237 1.857-1.237 3.109 0 1.227.407 2.249 1.222 3.063.814.816 1.817 1.223 3.003 1.223 1.21 0 2.223-.407 3.041-1.223.818-.814 1.227-1.836 1.227-3.063 0-.83-.209-1.578-.627-2.246-.418-.668-.962-1.19-1.634-1.567l.266-.214zM128 37.386c7.892 0 14.29 6.396 14.29 14.29 0 7.893-6.398 14.291-14.29 14.291-7.893 0-14.29-6.398-14.29-14.29 0-7.895 6.397-14.291 14.29-14.291zm61.913 25.717c3.946 6.838.795 15.613-6.042 19.56-6.839 3.945-15.615.794-19.56-6.043-3.947-6.839-.795-15.615 6.042-19.56 6.839-3.947 15.615-.795 19.56 6.043zM73.08 90.407c6.838-3.946 15.614-.795 19.56 6.042 3.946 6.839.795 15.615-6.042 19.56-6.838 3.947-15.615.795-19.56-6.042-3.947-6.839-.796-15.615 6.042-19.56zm123.826 23.25c0 7.892-6.396 14.29-14.29 14.29-7.893 0-14.291-6.398-14.291-14.29 0-7.893 6.398-14.29 14.29-14.29 7.894 0 14.291 6.397 14.291 14.29zm-165.49 0c0-7.893 6.397-14.29 14.29-14.29 7.893 0 14.29 6.397 14.29 14.29 0 7.892-6.397 14.29-14.29 14.29-7.893 0-14.29-6.398-14.29-14.29zm24.15 42.81c3.946 6.838.795 15.614-6.042 19.56-6.84 3.946-15.615.795-19.56-6.043-3.948-6.838-.796-15.614 6.041-19.56 6.839-3.946 15.615-.795 19.56 6.043zm117.477 13.517c-3.946 6.838-12.722 9.989-19.56 6.042-6.839-3.946-9.99-12.722-6.043-19.56 3.946-6.838 12.722-9.989 19.56-6.042 6.839 3.946 9.989 12.722 6.043 19.56zM128 218.523c-7.893 0-14.29-6.397-14.29-14.29 0-7.892 6.397-14.29 14.29-14.29 7.892 0 14.29 6.398 14.29 14.29 0 7.893-6.398 14.29-14.29 14.29z" fill="#2F3A54"/></svg>
